<?xml version="1.0" standalone="no"?>
<!DOCTYPE svg PUBLIC "-//W3C//DTD SVG 20010904//EN"
 "http://www.w3.org/TR/2001/REC-SVG-20010904/DTD/svg10.dtd">
<svg version="1.0" xmlns="http://www.w3.org/2000/svg"
 width="588.000000pt" height="588.000000pt" viewBox="0 0 588.000000 588.000000"
 preserveAspectRatio="xMidYMid meet">

<g transform="translate(0.000000,588.000000) scale(0.100000,-0.100000)"
fill="#000000" stroke="none">
<path d="M4226 3143 c5 -5 12 -12 16 -18 4 -6 8 -2 8 8 0 9 -7 17 -17 17 -9 0
-12 -3 -7 -7z"/>
<path d="M3039 3073 c-13 -16 -12 -17 4 -4 16 13 21 21 13 21 -2 0 -10 -8 -17
-17z"/>
<path d="M4211 3052 c-8 -18 -11 -35 -7 -39 3 -3 6 1 6 10 0 8 5 17 11 19 6 2
10 13 7 23 -3 16 -6 14 -17 -13z"/>
<path d="M3993 3053 c9 -2 23 -2 30 0 6 3 -1 5 -18 5 -16 0 -22 -2 -12 -5z"/>
<path d="M2701 3017 c-6 -8 -7 -17 -3 -21 4 -4 0 -13 -9 -19 -8 -7 -18 -20
-22 -30 -4 -10 -11 -16 -16 -12 -5 3 -12 2 -15 -3 -2 -4 6 -9 20 -10 16 -1 24
3 24 15 0 8 6 21 14 27 12 10 32 66 22 66 -2 0 -9 -6 -15 -13z"/>
<path d="M4030 3020 c8 -5 20 -10 25 -10 6 0 3 5 -5 10 -8 5 -19 10 -25 10 -5
0 -3 -5 5 -10z"/>
<path d="M3938 3013 c7 -3 16 -2 19 1 4 3 -2 6 -13 5 -11 0 -14 -3 -6 -6z"/>
<path d="M3902 2980 c0 -14 2 -19 5 -12 2 6 2 18 0 25 -3 6 -5 1 -5 -13z"/>
<path d="M4192 2970 c0 -19 2 -27 5 -17 2 9 2 25 0 35 -3 9 -5 1 -5 -18z"/>
<path d="M4410 2990 c0 -5 7 -10 15 -10 8 0 15 -4 15 -9 0 -13 32 -23 42 -13
6 6 -1 12 -16 16 -14 3 -26 11 -26 16 0 6 -7 10 -15 10 -8 0 -15 -4 -15 -10z"/>
<path d="M4171 2974 c0 -11 3 -14 6 -6 3 7 2 16 -1 19 -3 4 -6 -2 -5 -13z"/>
<path d="M4510 2970 c11 -7 11 -10 2 -10 -7 0 -10 -5 -6 -11 4 -8 9 -7 15 2 9
15 3 29 -14 29 -7 0 -6 -4 3 -10z"/>
<path d="M3570 2951 c5 -11 10 -31 10 -45 0 -14 5 -26 10 -26 10 0 4 63 -7 83
-10 17 -23 6 -13 -12z"/>
<path d="M3757 2963 c-10 -9 -9 -23 2 -23 5 0 11 7 15 15 5 15 -5 20 -17 8z"/>
<path d="M3611 2944 c0 -11 3 -14 6 -6 3 7 2 16 -1 19 -3 4 -6 -2 -5 -13z"/>
<path d="M4551 2924 c0 -11 3 -14 6 -6 3 7 2 16 -1 19 -3 4 -6 -2 -5 -13z"/>
<path d="M3763 2915 c0 -8 6 -15 13 -15 8 0 11 6 8 15 -4 8 -9 15 -13 15 -4 0
-8 -7 -8 -15z"/>
<path d="M3253 2913 c15 -2 37 -2 50 0 12 2 0 4 -28 4 -27 0 -38 -2 -22 -4z"/>
<path d="M4522 2900 c0 -14 2 -19 5 -12 2 6 2 18 0 25 -3 6 -5 1 -5 -13z"/>
<path d="M4180 2910 c-10 -34 -8 -50 5 -50 8 0 15 3 14 8 -1 11 -17 48 -19 42z"/>
<path d="M3235 2895 c25 -9 107 -12 94 -4 -8 5 -34 8 -59 8 -25 0 -40 -2 -35
-4z"/>
<path d="M3796 2884 c-8 -21 -8 -49 1 -41 7 7 14 57 8 57 -1 0 -6 -7 -9 -16z"/>
<path d="M3390 2880 c10 -6 11 -10 3 -10 -7 0 -13 -5 -13 -12 0 -6 3 -9 6 -5
3 3 16 -6 28 -20 13 -15 29 -24 41 -21 17 3 16 6 -12 23 -17 10 -34 27 -36 37
-3 10 -11 18 -19 18 -10 0 -9 -3 2 -10z"/>
<path d="M2614 2864 c3 -8 -1 -22 -9 -30 -19 -20 -19 -34 0 -34 8 0 15 -7 15
-15 0 -8 7 -15 15 -15 8 0 15 5 15 11 0 5 -4 8 -9 5 -12 -8 -18 12 -15 57 1
20 -3 37 -8 37 -6 0 -7 -7 -4 -16z"/>
<path d="M3136 2871 c-3 -5 5 -8 19 -8 14 0 22 3 19 8 -3 5 -11 9 -19 9 -8 0
-16 -4 -19 -9z"/>
<path d="M3890 2870 c0 -5 5 -10 10 -10 6 0 10 5 10 10 0 6 -4 10 -10 10 -5 0
-10 -4 -10 -10z"/>
<path d="M2933 2854 c-15 -16 -17 -50 -4 -59 20 -12 39 -63 28 -74 -6 -6 -7
-11 -2 -11 6 0 18 12 28 26 18 24 18 27 2 44 -11 12 -13 19 -4 22 16 5 3 45
-19 57 -11 6 -21 4 -29 -5z m16 -53 c-15 -5 -22 6 -14 19 6 9 10 9 16 -1 5 -8
4 -15 -2 -18z"/>
<path d="M4495 2843 c-14 -15 -25 -32 -25 -38 1 -5 9 0 19 13 11 13 26 20 34
16 12 -4 14 0 10 15 -7 27 -7 26 -38 -6z"/>
<path d="M3032 2850 c-12 -5 -25 -17 -28 -25 -11 -28 2 -26 31 5 31 33 31 33
-3 20z"/>
<path d="M3582 2830 c0 -14 4 -38 8 -55 6 -23 8 -25 9 -8 0 12 3 27 6 35 3 7
-1 22 -9 33 -15 19 -15 19 -14 -5z"/>
<path d="M3816 2835 c-3 -8 -1 -26 4 -39 5 -13 7 -26 4 -29 -2 -2 2 -10 10
-16 12 -10 14 -9 9 8 -3 12 -1 21 5 21 9 0 13 -36 15 -142 0 -15 6 -29 14 -32
10 -4 13 -1 9 12 -5 13 -14 143 -16 222 -1 12 -3 11 -11 -2 -12 -22 -31 -24
-23 -3 4 8 2 15 -4 15 -5 0 -12 -7 -16 -15z"/>
<path d="M4157 2830 c-3 -11 -1 -23 4 -26 5 -3 9 -1 9 5 0 5 3 16 6 25 3 9 2
16 -4 16 -5 0 -12 -9 -15 -20z"/>
<path d="M2672 2765 c-11 -13 -7 -18 20 -35 18 -11 41 -20 50 -20 9 0 19 -6
21 -12 3 -8 6 -6 6 5 1 9 -6 17 -15 17 -8 0 -13 4 -9 10 3 5 13 7 23 4 9 -2 6
1 -7 8 -19 10 -25 10 -29 0 -5 -17 -27 -15 -42 3 -10 12 -9 15 4 15 10 0 14 5
11 10 -8 14 -18 12 -33 -5z"/>
<path d="M2988 2713 c7 -3 16 -2 19 1 4 3 -2 6 -13 5 -11 0 -14 -3 -6 -6z"/>
<path d="M3386 2711 c-4 -7 -5 -15 -2 -18 9 -9 19 4 14 18 -4 11 -6 11 -12 0z"/>
<path d="M3438 2713 c7 -3 16 -2 19 1 4 3 -2 6 -13 5 -11 0 -14 -3 -6 -6z"/>
<path d="M3830 2711 c0 -6 4 -13 10 -16 6 -3 7 1 4 9 -7 18 -14 21 -14 7z"/>
<path d="M3580 2691 c0 -11 4 -23 10 -26 6 -4 9 5 8 19 -3 30 -18 35 -18 7z"/>
<path d="M4132 2675 c1 -31 22 -54 36 -40 3 3 0 5 -6 5 -7 0 -12 15 -12 35 0
19 -4 35 -10 35 -5 0 -9 -16 -8 -35z"/>
<path d="M3173 2673 c9 -2 23 -2 30 0 6 3 -1 5 -18 5 -16 0 -22 -2 -12 -5z"/>
<path d="M3303 2673 c9 -2 17 -9 17 -15 0 -6 -26 -9 -70 -6 -38 2 -70 0 -70
-4 0 -15 128 -12 148 4 20 17 14 28 -15 27 -17 -1 -21 -3 -10 -6z"/>
<path d="M3080 2664 c0 -5 64 -34 77 -34 4 0 -7 9 -25 20 -32 20 -52 25 -52
14z"/>
</g>
</svg>
