<svg width="315" height="262" viewBox="0 0 315 262" fill="none" xmlns="http://www.w3.org/2000/svg">
<path d="M230.331 262C254.057 262 273.292 259.526 273.292 256.474C273.292 253.422 254.057 250.948 230.331 250.948C206.604 250.948 187.37 253.422 187.37 256.474C187.37 259.526 206.604 262 230.331 262Z" fill="#D5E6FB"/>
<path d="M154.953 220.481C154.86 220.482 154.769 220.46 154.687 220.419C154.566 220.347 154.478 220.231 154.44 220.097C154.403 219.963 154.419 219.819 154.485 219.696C156.195 216.935 158.819 214.84 161.915 213.766C165.011 212.693 168.388 212.706 171.474 213.804C173.683 203.819 183.622 195.886 194.006 195.886H194.261C194.402 195.886 194.537 195.941 194.636 196.039C194.736 196.138 194.792 196.271 194.792 196.409C194.792 196.548 194.736 196.681 194.636 196.779C194.537 196.878 194.402 196.933 194.261 196.933H194.006C183.898 196.933 174.235 204.824 172.398 214.631C172.384 214.71 172.352 214.784 172.305 214.849C172.257 214.914 172.195 214.967 172.123 215.004C172.051 215.042 171.972 215.063 171.891 215.065C171.81 215.067 171.729 215.051 171.655 215.018C168.759 213.822 165.524 213.693 162.539 214.654C159.555 215.614 157.02 217.601 155.399 220.251C155.349 220.323 155.283 220.381 155.205 220.422C155.127 220.462 155.041 220.482 154.953 220.481Z" fill="#D5E6FB"/>
<path d="M303.713 219.445C303.606 219.446 303.502 219.413 303.416 219.351C303.299 219.272 303.218 219.152 303.19 219.015C303.162 218.878 303.19 218.735 303.267 218.618C306.909 213.385 307.907 209.031 306.219 205.808C302.949 199.528 290.663 199.235 290.547 199.225C290.463 199.224 290.381 199.204 290.307 199.166C290.233 199.128 290.17 199.073 290.122 199.005C290.074 198.937 290.042 198.86 290.03 198.778C290.017 198.696 290.023 198.613 290.048 198.534C291.81 193.468 291.778 189.868 289.941 187.827C287.446 185.054 282.349 186.1 282.296 186.111C282.178 186.136 282.055 186.121 281.947 186.067C281.839 186.014 281.752 185.926 281.702 185.818C277.189 176.629 268.875 179.339 268.525 179.465C268.391 179.511 268.244 179.502 268.117 179.441C267.989 179.381 267.891 179.272 267.845 179.141C267.799 179.009 267.807 178.864 267.869 178.738C267.931 178.613 268.04 178.516 268.174 178.471C268.27 178.471 277.497 175.394 282.487 185.012C283.847 184.803 288.253 184.374 290.738 187.105C292.755 189.345 292.936 193.071 291.279 198.178C294.072 198.346 304.021 199.35 307.206 205.295C309.075 208.885 308.067 213.563 304.191 219.184C304.143 219.266 304.073 219.334 303.989 219.38C303.905 219.426 303.809 219.448 303.713 219.445Z" fill="#D5E6FB"/>
<path d="M314.469 223.37H0.532861C0.392055 223.37 0.25702 223.315 0.157456 223.217C0.0578915 223.118 0.00195312 222.985 0.00195312 222.847C0.00195312 222.708 0.0578915 222.575 0.157456 222.477C0.25702 222.378 0.392055 222.323 0.532861 222.323H314.469C314.61 222.323 314.745 222.378 314.845 222.477C314.944 222.575 315 222.708 315 222.847C315 222.985 314.944 223.118 314.845 223.217C314.745 223.315 314.61 223.37 314.469 223.37Z" fill="#D5E6FB"/>
<path d="M282.816 102.32H171.517C168.614 102.32 166.261 104.639 166.261 107.501V108.6C166.261 111.461 168.614 113.78 171.517 113.78H282.816C285.719 113.78 288.072 111.461 288.072 108.6V107.501C288.072 104.639 285.719 102.32 282.816 102.32Z" fill="white"/>
<path d="M282.795 114.314H171.517C169.983 114.311 168.512 113.709 167.428 112.64C166.343 111.571 165.733 110.122 165.73 108.61V107.563C165.717 106.806 165.857 106.054 166.142 105.35C166.427 104.647 166.851 104.006 167.39 103.465C167.928 102.925 168.571 102.495 169.279 102.202C169.988 101.908 170.748 101.756 171.517 101.755H282.795C284.33 101.755 285.802 102.356 286.887 103.425C287.972 104.495 288.582 105.946 288.582 107.459V108.505C288.594 109.263 288.454 110.015 288.169 110.719C287.884 111.422 287.46 112.063 286.922 112.603C286.383 113.144 285.741 113.573 285.033 113.867C284.324 114.161 283.563 114.313 282.795 114.314ZM171.517 102.801C170.264 102.804 169.064 103.296 168.179 104.168C167.293 105.041 166.794 106.224 166.792 107.459V108.505C166.779 109.125 166.892 109.742 167.123 110.318C167.355 110.895 167.701 111.42 168.141 111.863C168.581 112.307 169.106 112.659 169.685 112.9C170.265 113.141 170.888 113.266 171.517 113.267H282.795C284.047 113.265 285.247 112.773 286.133 111.9C287.018 111.027 287.517 109.844 287.52 108.61V107.563C287.533 106.943 287.42 106.327 287.188 105.751C286.957 105.174 286.611 104.649 286.171 104.205C285.731 103.762 285.206 103.41 284.626 103.168C284.047 102.927 283.424 102.803 282.795 102.801H171.517Z" fill="#093269"/>
<path d="M279.451 113.78L278.835 120.583L267.155 248.499C266.934 250.933 265.797 253.197 263.968 254.845C262.138 256.494 259.748 257.407 257.269 257.405H197.032C194.553 257.407 192.164 256.494 190.334 254.845C188.504 253.197 187.367 250.933 187.147 248.499L177.283 140.05L174.894 113.78H279.451Z" fill="white"/>
<path d="M257.311 257.929H197.032C194.411 257.942 191.881 256.979 189.95 255.233C188.018 253.486 186.827 251.085 186.616 248.509L174.362 113.822C174.356 113.677 174.405 113.535 174.5 113.424C174.551 113.372 174.612 113.33 174.68 113.302C174.747 113.273 174.82 113.258 174.893 113.257H279.45C279.524 113.258 279.596 113.273 279.664 113.302C279.731 113.33 279.792 113.372 279.843 113.424C279.938 113.535 279.988 113.677 279.981 113.822L279.365 120.625L267.685 248.541C267.467 251.103 266.279 253.491 264.357 255.23C262.435 256.969 259.92 257.932 257.311 257.929ZM175.477 114.314L187.678 248.467C187.878 250.773 188.951 252.921 190.685 254.482C192.418 256.043 194.684 256.904 197.032 256.893H257.311C259.659 256.904 261.926 256.043 263.659 254.482C265.392 252.921 266.466 250.773 266.666 248.467L278.866 114.314H175.477Z" fill="#093269"/>
<path d="M220.371 155.069C223.418 155.676 225.086 158.051 226.997 160.05L219.32 172.61L209.583 166.948C209.71 166.738 209.795 166.571 209.902 166.403C211.887 163.264 213.894 160.239 215.848 157.12C216.145 156.614 216.553 156.18 217.041 155.849C217.53 155.518 218.087 155.298 218.672 155.205C218.767 155.179 218.86 155.144 218.948 155.1L220.371 155.069Z" fill="#1264D1"/>
<path d="M235.226 199.329L235.449 203.934C235.3 203.746 235.215 203.631 235.141 203.516L228.972 193.856C228.897 193.758 228.856 193.638 228.856 193.516C228.856 193.393 228.897 193.273 228.972 193.175C230.872 189.983 232.773 186.77 234.663 183.568C234.716 183.473 234.79 183.39 234.928 183.201C234.982 184.363 235.024 185.41 235.066 186.456C235.066 186.885 235.066 187.325 235.13 187.754C235.144 187.832 235.179 187.906 235.232 187.966C235.284 188.027 235.351 188.073 235.428 188.099C239.392 188.594 243.414 188.421 247.32 187.587C248.159 187.377 248.976 187.021 249.868 186.718C249.804 186.875 249.762 187 249.709 187.105C247.925 190.475 246.134 193.849 244.336 197.226C244.069 197.736 243.668 198.167 243.175 198.475C242.682 198.782 242.116 198.954 241.533 198.974C239.76 199.12 237.986 199.193 236.224 199.288L235.226 199.329Z" fill="#1264D1"/>
<path d="M219.288 182.647L215.041 180.051C212.365 182.919 208.988 187.681 207.842 192.809C207.725 192.6 207.629 192.453 207.544 192.307C205.753 188.999 203.984 185.696 202.235 182.395C201.968 181.953 201.821 181.45 201.808 180.934C201.795 180.419 201.916 179.91 202.161 179.454C203.127 177.717 204.199 176.022 205.229 174.316C205.336 174.148 205.442 173.981 205.58 173.782L201.715 171.437V171.343C201.895 171.343 202.065 171.343 202.246 171.343L213.597 171.772C213.862 171.772 214.096 171.772 214.255 172.107C215.879 175.53 217.525 178.931 219.171 182.343L219.288 182.647Z" fill="#1264D1"/>
<path d="M227.581 170.171L231.924 167.722C230.087 163.117 227.783 158.826 223.886 155.414H224.491H235.895C236.494 155.41 237.083 155.567 237.599 155.868C238.116 156.168 238.539 156.601 238.825 157.12C239.792 158.711 240.737 160.312 241.692 161.903L242 162.416L246.078 160.071C245.94 160.333 245.876 160.459 245.802 160.584C243.859 163.839 241.905 167.084 239.972 170.349C239.916 170.476 239.819 170.582 239.696 170.65C239.574 170.717 239.432 170.744 239.293 170.726C235.502 170.537 231.701 170.37 227.91 170.192L227.581 170.171Z" fill="#1264D1"/>
<path d="M225.351 188.623L224.884 199.758C224.003 199.758 223.185 199.664 222.367 199.602C219.182 199.382 215.997 199.151 212.811 198.942C212.01 198.888 211.255 198.55 210.688 197.99C209.964 197.36 209.429 196.548 209.139 195.64C208.849 194.733 208.815 193.765 209.042 192.84C209.424 191.134 209.976 189.47 210.433 187.869L225.351 188.623Z" fill="#1264D1"/>
<path d="M236.479 174.828L246.099 168.926C246.216 169.104 246.322 169.25 246.407 169.397L251.971 178.816C252.539 179.726 252.761 180.805 252.598 181.861C252.435 182.917 251.896 183.881 251.079 184.583C249.911 185.563 248.525 186.259 247.033 186.613C246.205 186.854 245.377 187.074 244.528 187.262C244.442 187.274 244.354 187.265 244.273 187.236C244.191 187.206 244.118 187.158 244.06 187.095C241.597 183.138 239.141 179.175 236.691 175.205L236.479 174.828Z" fill="#1264D1"/>
<path d="M268.344 114.314H174.904C174.763 114.314 174.628 114.259 174.529 114.161C174.429 114.063 174.373 113.929 174.373 113.791C174.373 113.652 174.429 113.519 174.529 113.421C174.628 113.323 174.763 113.267 174.904 113.267H268.344C268.485 113.267 268.62 113.323 268.719 113.421C268.819 113.519 268.875 113.652 268.875 113.791C268.875 113.929 268.819 114.063 268.719 114.161C268.62 114.259 268.485 114.314 268.344 114.314Z" fill="#093269"/>
<path d="M262.281 244.585H194.272C194.131 244.585 193.996 244.529 193.896 244.431C193.797 244.333 193.741 244.2 193.741 244.061C193.741 243.922 193.797 243.789 193.896 243.691C193.996 243.593 194.131 243.538 194.272 243.538H262.281C262.422 243.538 262.557 243.593 262.656 243.691C262.756 243.789 262.812 243.922 262.812 244.061C262.812 244.2 262.756 244.333 262.656 244.431C262.557 244.529 262.422 244.585 262.281 244.585Z" fill="#D5E6FB"/>
<path d="M113.51 63.7316L129.034 82.4657C129.034 82.4657 147.722 75.464 151.067 73.3812C154.411 71.2985 162.386 61.8686 164.7 64.6212C167.015 67.3737 171.071 73.0673 166.665 79.8283C162.258 86.5894 125.647 99.0648 121.304 99.5568C116.961 100.049 95.5337 66.7144 95.5337 66.7144L113.51 63.7316Z" fill="white"/>
<path d="M121.24 100.091C116.557 100.091 98.6553 72.5545 95.0769 66.9865C95.0351 66.9111 95.0132 66.8265 95.0132 66.7406C95.0132 66.6546 95.0351 66.5701 95.0769 66.4946C95.1136 66.4172 95.1683 66.3494 95.2366 66.2966C95.3048 66.2439 95.3847 66.2077 95.4698 66.1911L113.457 63.2083C113.55 63.1923 113.645 63.2013 113.733 63.2345C113.821 63.2677 113.898 63.3237 113.956 63.3967L129.204 81.8692C131.805 80.8854 147.775 74.8361 150.79 72.9731C152.22 71.9326 153.572 70.7924 154.836 69.5612C158.106 66.5679 161.462 63.4699 163.734 63.6165C164.001 63.631 164.262 63.701 164.5 63.8218C164.738 63.9426 164.947 64.1116 165.114 64.3177C166.813 66.4109 171.995 72.6068 167.11 80.1423C162.555 87.1022 125.54 99.6615 121.399 100.08L121.24 100.091ZM96.4042 67.0912C104.665 79.9016 118.384 99.3789 121.251 99.044C125.317 98.5835 161.929 86.1603 166.219 79.5458C170.678 72.6487 165.868 66.8505 164.286 64.8933C164.211 64.7989 164.117 64.7219 164.008 64.6676C163.9 64.6133 163.781 64.5832 163.66 64.5794C161.876 64.4747 158.35 67.7192 155.558 70.2415C154.239 71.5264 152.819 72.7058 151.311 73.7685C147.955 75.8617 129.947 82.6123 129.182 82.8949C129.08 82.9362 128.966 82.9432 128.858 82.9149C128.751 82.8865 128.656 82.8244 128.588 82.7379L113.298 64.2968L96.4042 67.0912Z" fill="#093269"/>
<path d="M79.2132 161.694C79.2132 161.694 86.561 174.253 86.9433 179.224C87.3255 184.196 73.8086 235.741 73.8086 235.741H91.9762C91.9762 235.741 105.886 186.467 106.661 178.46C107.436 170.454 100.481 153.342 100.481 153.342L79.2132 161.694Z" fill="white"/>
<path d="M91.9761 236.264H73.8084C73.727 236.265 73.6466 236.247 73.5731 236.212C73.4995 236.178 73.4348 236.128 73.3837 236.065C73.3352 236 73.3016 235.925 73.2851 235.845C73.2686 235.766 73.2696 235.684 73.2882 235.605C73.4262 235.092 86.7944 184.07 86.4228 179.266C86.0512 174.462 78.8308 162.081 78.7565 161.955C78.7251 161.888 78.7088 161.815 78.7088 161.741C78.7088 161.667 78.7251 161.593 78.7565 161.526C78.7805 161.454 78.8207 161.389 78.874 161.334C78.9274 161.28 78.9924 161.238 79.0644 161.212L100.301 152.839C100.366 152.814 100.435 152.801 100.505 152.802C100.574 152.803 100.643 152.818 100.707 152.845C100.772 152.872 100.83 152.911 100.878 152.961C100.927 153.01 100.965 153.068 100.991 153.132C101.278 153.834 107.988 170.485 107.213 178.523C106.438 186.561 93.0698 233.878 92.507 235.887C92.4739 235.999 92.4036 236.098 92.3074 236.166C92.2112 236.234 92.0946 236.269 91.9761 236.264ZM74.488 235.217H91.5726C92.868 230.591 105.376 185.902 106.13 178.408C106.81 171.375 101.288 156.837 100.173 153.991L79.9988 161.955C81.411 164.425 87.1449 174.692 87.4953 179.182C87.8457 183.913 76.1338 228.948 74.488 235.217Z" fill="#093269"/>
<path d="M45.182 159.412L48.7922 179.099C48.7922 179.099 36.8043 227.609 33.9268 236.505L51.3299 238.786C51.3299 238.786 70.6549 186.205 71.1752 181.893C71.6955 177.581 67.8199 157.633 67.8199 157.633L45.182 159.412Z" fill="white"/>
<path d="M51.3726 239.31H51.3196L33.9058 237.018C33.8291 237.008 33.7553 236.983 33.6894 236.943C33.6234 236.903 33.5669 236.85 33.5235 236.787C33.4897 236.719 33.4722 236.644 33.4722 236.567C33.4722 236.491 33.4897 236.416 33.5235 236.348C36.2524 227.776 47.6669 181.642 48.304 179.078L44.7151 159.506C44.7029 159.433 44.706 159.358 44.7243 159.286C44.7425 159.214 44.7755 159.146 44.8212 159.087C44.8651 159.03 44.921 158.983 44.9851 158.948C45.0493 158.914 45.1201 158.894 45.1929 158.889L67.8732 157.109C68.0023 157.101 68.13 157.139 68.2332 157.216C68.3364 157.293 68.4084 157.404 68.436 157.528C68.5953 158.355 72.3116 177.602 71.7914 181.945C71.2711 186.289 52.6787 236.819 51.9248 238.964C51.8851 239.074 51.8091 239.168 51.7091 239.231C51.609 239.293 51.4906 239.321 51.3726 239.31ZM34.6703 236.065L51.0222 238.158C52.7955 233.302 70.2092 185.828 70.6871 181.778C71.1436 177.947 68.0007 161.149 67.4273 158.135L45.8087 159.831L49.3127 178.952C49.3285 179.024 49.3285 179.099 49.3127 179.172C49.1959 179.695 37.7708 225.892 34.6703 236.065Z" fill="#093269"/>
<path d="M73.0547 26.1376C72.3326 25.4783 71.9185 21.229 71.5469 20.0569C70.4836 16.6401 70.5281 12.9815 71.6743 9.59083C72.9673 6.52199 75.4414 4.08329 78.5549 2.80885C80.1935 1.97938 82.0891 1.7888 83.8639 2.27508C84.3569 2.51688 84.8886 2.67268 85.4354 2.73559C85.9085 2.69162 86.3674 2.55271 86.7839 2.32741C92.8363 -0.362356 98.3577 0.00395483 104.134 3.12283C105.647 3.8585 106.997 4.88306 108.105 6.13704C109.003 7.35601 109.602 8.76311 109.856 10.2483C110.11 11.7335 110.013 13.2565 109.57 14.6983C109.008 16.7915 107.596 20.2871 105.663 21.543C104.601 22.2129 103.423 21.8675 102.414 22.2547C100.29 23.0292 98.3152 24.9654 96.2978 25.9911C89.1836 29.6437 79.6698 32.0928 73.0547 26.1376Z" fill="white"/>
<path d="M82.8979 30.2613C79.136 30.3535 75.4823 29.0157 72.6938 26.5249C72.1311 26.0121 71.8232 24.4317 71.4303 22.1815C71.2922 21.3652 71.1542 20.5907 71.0374 20.2139C69.9403 16.6868 69.9922 12.9094 71.1861 9.41297C71.8474 7.82596 72.82 6.38319 74.0481 5.16733C75.2762 3.95146 76.7356 2.98641 78.3427 2.32747C80.0982 1.4315 82.1365 1.2366 84.034 1.78324L84.4375 1.94023C84.7444 2.08666 85.0751 2.17876 85.4144 2.21234C85.7873 2.1708 86.1481 2.05698 86.4762 1.87743C92.6453 -0.864669 98.3154 -0.603018 104.368 2.66238C105.943 3.43266 107.35 4.49931 108.509 5.80219C109.471 7.09086 110.115 8.58301 110.39 10.16C110.664 11.7371 110.562 13.3555 110.091 14.8867C109.411 17.3776 107.967 20.7477 105.95 22.035C105.305 22.4039 104.572 22.5989 103.826 22.6002C103.423 22.6102 103.023 22.6735 102.637 22.7885C101.427 23.3266 100.286 24.0047 99.2392 24.8085C98.3931 25.4389 97.5025 26.009 96.5741 26.5145C93.1762 28.189 88.0583 30.2613 82.8979 30.2613ZM73.4053 25.7504C80.4239 32.03 90.6067 28.3251 96.0538 25.5306C96.9346 25.0449 97.7823 24.503 98.5915 23.9084C99.7093 23.0651 100.929 22.362 102.223 21.8152C102.707 21.6576 103.211 21.5695 103.72 21.5536C104.293 21.5633 104.859 21.4301 105.366 21.1663C107.213 19.9627 108.551 16.4775 109.061 14.6146C109.487 13.2523 109.586 11.8108 109.348 10.4046C109.11 8.99839 108.543 7.6662 107.691 6.51388C106.621 5.32123 105.326 4.3439 103.879 3.63572C98.1455 0.495915 92.7834 0.286595 86.9965 2.86124C86.5096 3.11603 85.9746 3.26923 85.425 3.31128C84.9479 3.27707 84.4806 3.16016 84.0447 2.9659L83.6836 2.82984C82.0387 2.37468 80.2793 2.55821 78.7674 3.34267C77.2888 3.94279 75.9451 4.82499 74.8135 5.93857C73.682 7.05216 72.7848 8.37518 72.1736 9.83161C71.0596 13.1097 71.0187 16.65 72.0568 19.9523C72.1948 20.3918 72.3222 21.1558 72.4815 22.0455C72.6211 23.3154 72.9318 24.5614 73.4053 25.7504Z" fill="#093269"/>
<path d="M91.8278 119.024L110.845 171.49L80.8062 176.472L72.3117 148.873L75.4971 176.786L42.3791 178.732C42.3791 178.732 33.0776 137.339 36.6772 120.594L91.8278 119.024Z" fill="#093269"/>
<path d="M42.3153 179.256C42.1957 179.256 42.0797 179.215 41.9869 179.141C41.8941 179.066 41.8301 178.963 41.8056 178.847C41.4234 177.152 32.5679 137.119 36.1674 120.437C36.1893 120.321 36.2508 120.216 36.3417 120.14C36.4325 120.064 36.5472 120.021 36.6665 120.018L91.8171 118.5C91.9287 118.495 92.0391 118.526 92.1312 118.588C92.2233 118.65 92.292 118.741 92.3268 118.846L111.344 171.312C111.378 171.382 111.395 171.459 111.395 171.537C111.395 171.615 111.378 171.692 111.344 171.762C111.304 171.826 111.251 171.881 111.189 171.924C111.127 171.967 111.057 171.997 110.983 172.013L80.9335 176.995C80.8067 177.011 80.6781 176.984 80.5697 176.917C80.4612 176.85 80.3797 176.748 80.3389 176.629L73.4796 154.43L75.9961 176.723C76.0064 176.793 76.0013 176.865 75.9812 176.934C75.961 177.003 75.9263 177.066 75.8793 177.121C75.8317 177.175 75.7732 177.219 75.7073 177.249C75.6415 177.28 75.5698 177.297 75.497 177.298L42.3896 179.256H42.3153ZM37.1124 121.054C33.9907 136.837 41.7844 173.74 42.74 178.178L74.8387 176.294L71.7488 148.936C71.7349 148.867 71.7348 148.796 71.7486 148.727C71.7624 148.659 71.7898 148.593 71.8292 148.535C71.8687 148.477 71.9194 148.426 71.9785 148.387C72.0375 148.348 72.1038 148.321 72.1736 148.308C72.2433 148.294 72.3151 148.294 72.3848 148.307C72.4546 148.321 72.5209 148.348 72.5801 148.387C72.6392 148.426 72.69 148.476 72.7296 148.534C72.7692 148.592 72.7967 148.657 72.8106 148.726L81.199 175.938L110.155 171.134L91.4561 119.547L37.1124 121.054Z" fill="#093269"/>
<path d="M77.1107 41.3762C77.1107 41.3762 48.1337 36.9386 41.1576 51.5178C33.5338 67.5099 33.8948 124.162 33.8948 124.162L96.9029 121.86L94.9492 86.7778L104.41 93.7482L119.626 66.1702C119.626 66.1702 107.277 54.5425 98.8567 48.5768C90.4365 42.6112 77.1107 41.3762 77.1107 41.3762Z" fill="#1264D1"/>
<path d="M90.4366 42.6112L88.6952 53.611C88.6952 53.611 86.4548 58.4254 79.2451 55.5681C72.0353 52.7109 71.6743 47.4674 71.6743 47.4674L75.6561 27.0273C75.6561 27.0273 88.2917 22.5688 88.3979 10.47C90.5839 13.0074 93.2863 15.0638 96.33 16.5062C99.3737 17.9485 102.691 18.7446 106.067 18.8429C106.067 18.8429 105.005 31.3079 103.231 36.8863C101.458 42.4647 90.4366 42.6112 90.4366 42.6112Z" fill="white"/>
<path d="M83.4288 57.0229C81.9192 56.9894 80.4303 56.6696 79.0435 56.0809C71.6108 53.1295 71.1648 47.7081 71.1436 47.5302C71.1383 47.4885 71.1383 47.4463 71.1436 47.4046L75.1254 26.954C75.1438 26.865 75.1846 26.782 75.244 26.7125C75.3033 26.6431 75.3793 26.5894 75.4652 26.5563C75.5926 26.5563 87.761 22.0873 87.8884 10.4909C87.8907 10.3825 87.9265 10.2773 87.991 10.1895C88.0555 10.1016 88.1457 10.0352 88.2494 9.99902C88.3532 9.96246 88.4662 9.96003 88.5715 9.99211C88.6768 10.0242 88.7687 10.089 88.8334 10.1769C90.9769 12.6489 93.6188 14.6541 96.5912 16.0649C99.5636 17.4758 102.801 18.2614 106.099 18.3718C106.171 18.3715 106.242 18.3863 106.308 18.4151C106.374 18.444 106.433 18.4863 106.481 18.5393C106.531 18.5922 106.569 18.655 106.593 18.7236C106.617 18.7921 106.626 18.8649 106.619 18.937C106.619 19.4498 105.504 31.4962 103.763 37.0956C102.106 42.3286 93.0488 43.0403 90.8827 43.124L89.2263 53.7156C89.231 53.7643 89.231 53.8134 89.2263 53.8621C88.6469 54.8624 87.7997 55.6863 86.7771 56.2437C85.7546 56.8012 84.5963 57.0707 83.4288 57.0229ZM72.2054 47.5302C72.2797 48.1267 72.9805 52.5539 79.4363 55.1076C85.7223 57.5985 87.9309 54.061 88.1857 53.4749L89.9058 42.5379C89.9275 42.4156 89.9909 42.3044 90.0855 42.2225C90.1802 42.1407 90.3003 42.0932 90.4261 42.0878C90.5323 42.0878 101.15 41.9413 102.764 36.792C104.262 31.9881 105.292 21.8675 105.525 19.3975C99.1989 19.0871 93.24 16.3754 88.8971 11.8306C87.984 22.1815 77.9604 26.6923 76.1553 27.4354L72.2054 47.5302Z" fill="#093269"/>
<path d="M79.2878 26.975C79.0819 25.6728 78.4305 24.479 77.4417 23.5919C76.4528 22.7048 75.1859 22.1776 73.8513 22.0978C70.5278 22.0978 70.0075 25.74 70.6658 28.2309C70.8673 28.9914 71.2208 29.7045 71.7056 30.3285C72.1904 30.9525 72.7967 31.4748 73.489 31.8648C74.1813 32.2547 74.9457 32.5045 75.7372 32.5993C76.5288 32.6942 77.3316 32.6323 78.0985 32.4173" fill="white"/>
<path d="M76.4738 33.1394C75.0353 33.1428 73.6361 32.6763 72.495 31.8128C71.3538 30.9494 70.5351 29.7376 70.1667 28.3669C69.8878 27.4653 69.807 26.5155 69.9296 25.5807C70.0523 24.6458 70.3756 23.7475 70.8781 22.9455C71.229 22.5023 71.6813 22.1471 72.1979 21.9088C72.7146 21.6706 73.2811 21.556 73.8512 21.5745C75.3103 21.6703 76.6932 22.2516 77.7734 23.2232C78.8537 24.1948 79.5672 25.4991 79.7973 26.9226C79.8114 27.0614 79.769 27.2 79.6794 27.308C79.5897 27.4159 79.4603 27.4844 79.3195 27.4982C79.1787 27.5121 79.0381 27.4703 78.9285 27.382C78.819 27.2936 78.7496 27.1661 78.7355 27.0273C78.5358 25.8614 77.9467 24.7948 77.0618 23.9965C76.177 23.1983 75.047 22.7142 73.8512 22.6211C73.4444 22.5994 73.0385 22.6757 72.6685 22.8435C72.2984 23.0113 71.9755 23.2654 71.7275 23.5839C71.3238 24.2573 71.0671 25.0063 70.9738 25.7831C70.8806 26.5598 70.9528 27.3472 71.186 28.0948C71.3705 28.7839 71.692 29.4301 72.132 29.9957C72.572 30.5613 73.1216 31.0351 73.7489 31.3896C74.3763 31.744 75.0688 31.972 75.7863 32.0604C76.5038 32.1488 77.232 32.0958 77.9285 31.9044C77.9982 31.8859 78.071 31.881 78.1426 31.8902C78.2142 31.8994 78.2833 31.9223 78.3459 31.9578C78.4085 31.9933 78.4634 32.0406 78.5075 32.0969C78.5516 32.1533 78.5839 32.2177 78.6028 32.2864C78.6216 32.3552 78.6265 32.4269 78.6172 32.4975C78.6079 32.568 78.5846 32.6361 78.5486 32.6979C78.5126 32.7596 78.4647 32.8137 78.4075 32.8571C78.3503 32.9006 78.2849 32.9325 78.2152 32.951C77.6461 33.0911 77.0603 33.1545 76.4738 33.1394Z" fill="#093269"/>
<path d="M95.098 24.7143C95.098 24.7143 98.3896 30.9939 97.3384 31.8416C96.2872 32.6894 93.7495 31.8416 93.7495 31.8416" fill="white"/>
<path d="M95.9796 32.7626C95.1525 32.7327 94.3353 32.5737 93.5587 32.2917C93.4928 32.2673 93.4326 32.2303 93.3814 32.1828C93.3302 32.1353 93.2891 32.0783 93.2604 32.015C93.2318 31.9517 93.2162 31.8834 93.2145 31.8141C93.2128 31.7448 93.2252 31.6759 93.2507 31.6114C93.3008 31.4829 93.4001 31.3789 93.5273 31.3221C93.6545 31.2653 93.7993 31.2602 93.9303 31.3079C94.801 31.6323 96.4043 31.9567 96.9883 31.4544C97.2963 30.9625 96.192 27.9273 94.6311 24.955C94.5806 24.8387 94.5754 24.7082 94.6165 24.5884C94.6577 24.4687 94.7423 24.3681 94.8541 24.3061C94.9782 24.2432 95.1224 24.2311 95.2555 24.2722C95.3887 24.3133 95.5 24.4044 95.5655 24.5259C96.8715 26.9854 98.8784 31.266 97.6891 32.2917C97.1933 32.6422 96.5879 32.809 95.9796 32.7626Z" fill="#093269"/>
<path d="M93.1189 21.4689C93.3858 20.3373 93.1994 19.3276 92.7025 19.2137C92.2055 19.0998 91.5863 19.9248 91.3193 21.0565C91.0524 22.1881 91.2388 23.1978 91.7357 23.3117C92.2326 23.4256 92.8519 22.6005 93.1189 21.4689Z" fill="#093269"/>
<path d="M102.066 23.5126C102.333 22.381 102.147 21.3713 101.65 21.2574C101.153 21.1435 100.534 21.9685 100.267 23.1001C99.9996 24.2318 100.186 25.2415 100.683 25.3554C101.18 25.4693 101.799 24.6442 102.066 23.5126Z" fill="#093269"/>
<path d="M90.4366 42.6112C90.4366 42.6112 86.0619 42.7472 81.4961 38.7283C81.4961 38.7283 82.1863 46.7662 89.4916 48.5768L90.4366 42.6112Z" fill="#093269"/>
<path d="M89.5449 49.1001H89.4175C81.8362 47.2162 81.0292 38.8644 81.0292 38.7806C81.0182 38.6765 81.0397 38.5716 81.091 38.4799C81.1422 38.3882 81.2207 38.3142 81.3159 38.2678C81.4109 38.2196 81.5186 38.2007 81.6247 38.2138C81.7308 38.2269 81.8304 38.2712 81.9105 38.341C84.2092 40.5402 87.2206 41.8705 90.4156 42.0983C90.4938 42.0954 90.5716 42.1099 90.6433 42.1407C90.715 42.1715 90.7787 42.2178 90.8297 42.2763C90.8806 42.3348 90.9182 42.4034 90.9402 42.4773C90.9622 42.5513 90.9679 42.629 90.9571 42.7054L90.0227 48.671C90.0118 48.7433 89.9853 48.8125 89.945 48.8738C89.9047 48.9352 89.8516 48.9874 89.7891 49.0269C89.7158 49.0722 89.6315 49.0975 89.5449 49.1001ZM82.2609 40.0051C82.7705 42.203 84.3845 46.4418 89.0671 47.8965L89.821 43.0926C87.0555 42.7886 84.4341 41.7181 82.2609 40.0051Z" fill="#093269"/>
<path d="M94.4078 37.4619C92.6935 37.5429 91.0155 36.9565 89.7358 35.8292C86.7415 33.0347 87.506 27.7494 87.5379 27.5296C87.5614 27.3934 87.6376 27.2714 87.7505 27.1894C87.8634 27.1075 88.0041 27.0718 88.1431 27.09C88.2122 27.1003 88.2785 27.1238 88.3383 27.1594C88.3981 27.1949 88.4503 27.2417 88.4917 27.2971C88.5331 27.3525 88.563 27.4155 88.5797 27.4823C88.5965 27.5491 88.5996 27.6186 88.5891 27.6866C88.5891 27.7389 87.8777 32.658 90.4685 35.0652C91.8595 36.3629 93.9831 36.7292 96.7863 36.1118C96.924 36.0868 97.0662 36.1153 97.183 36.1914C97.2998 36.2675 97.3821 36.3853 97.4128 36.5199C97.4282 36.5874 97.4297 36.6572 97.4171 36.7252C97.4044 36.7932 97.378 36.858 97.3393 36.9157C97.3006 36.9734 97.2505 37.0228 97.192 37.0609C97.1334 37.099 97.0677 37.125 96.9987 37.1374C96.1484 37.3318 95.2804 37.4405 94.4078 37.4619Z" fill="#093269"/>
<path d="M125.285 82.3402C125.997 83.502 126.687 84.58 127.26 85.48C127.809 86.3742 127.98 87.4443 127.738 88.4615C127.496 89.4786 126.859 90.3619 125.965 90.9224L118.214 95.8519C117.319 96.4154 116.236 96.6116 115.196 96.3984C114.156 96.1852 113.242 95.5796 112.65 94.7111L110.526 91.5713C106.926 86.2231 102.329 79.2423 101.947 77.9654C101.783 77.4226 101.711 76.8568 101.734 76.2909C101.734 74.5431 102.254 72.6173 101.649 71.1416C100.842 69.174 97.3171 70.0322 95.5226 66.6517C94.9977 65.6963 94.7416 64.62 94.7808 63.5343C94.82 62.4485 95.1531 61.3929 95.7456 60.4767L102.945 55.9449C104.037 55.8061 105.148 55.9558 106.163 56.3788C107.178 56.8017 108.061 57.4827 108.721 58.3521C111.068 61.3873 108.785 64.1817 110.261 65.6783C111.322 66.8505 113.35 67.2064 114.954 67.9285C115.484 68.1573 115.977 68.4605 116.419 68.8286C117.417 69.8124 121.887 76.8665 125.285 82.3402Z" fill="white"/>
<path d="M115.984 97.0136C115.231 97.0143 114.49 96.8311 113.827 96.4804C113.164 96.1298 112.599 95.6225 112.183 95.0041L111.057 93.3819L110.091 91.9375C107.054 87.4267 101.883 79.64 101.448 78.227C101.27 77.6294 101.191 77.0074 101.214 76.385C101.214 75.8303 101.214 75.2547 101.321 74.7C101.526 73.6176 101.471 72.503 101.161 71.4451C100.917 70.8276 100.259 70.5555 99.2181 70.1787C98.1979 69.9205 97.2548 69.4262 96.4671 68.7369C95.6794 68.0476 95.0698 67.1831 94.6888 66.2152C94.3078 65.2472 94.1665 64.2037 94.2765 63.1711C94.3865 62.1385 94.7446 61.1467 95.3213 60.2778C95.3597 60.2191 95.4104 60.1692 95.4699 60.1313L102.669 55.61C102.727 55.573 102.792 55.5481 102.86 55.5367C103.9 55.3955 104.959 55.4995 105.95 55.8401C106.941 56.1807 107.836 56.7482 108.562 57.4959C109.287 58.2437 109.822 59.1504 110.123 60.1416C110.424 61.1328 110.482 62.1802 110.293 63.1978C110.197 64.2444 110.165 64.9875 110.622 65.4794C111.471 66.2017 112.477 66.721 113.563 66.997C114.094 67.1854 114.625 67.3738 115.156 67.6145C115.733 67.8588 116.27 68.1869 116.749 68.5878C117.811 69.6344 122.844 77.484 125.71 82.11L126.581 83.5229C126.974 84.1508 127.346 84.7474 127.643 85.2916C128.27 86.3017 128.469 87.5142 128.196 88.6675C127.924 89.8208 127.203 90.8224 126.188 91.4561L118.405 96.3437C117.676 96.7819 116.838 97.0136 115.984 97.0136ZM96.1283 60.9372C95.6662 61.6776 95.3885 62.5155 95.3181 63.382C95.2477 64.2486 95.3865 65.1193 95.7232 65.9228C96.0598 66.7263 96.5847 67.4398 97.255 68.0049C97.9252 68.57 98.7216 68.9706 99.5792 69.1739C100.641 69.5717 101.703 69.9484 102.149 71.0264C102.526 72.2396 102.606 73.5237 102.382 74.7733C102.329 75.3175 102.276 75.8199 102.276 76.3746C102.257 76.89 102.318 77.4053 102.457 77.9026C102.743 78.8236 105.929 83.8473 110.951 91.341L111.928 92.7748L113.043 94.4389C113.546 95.2057 114.335 95.7458 115.24 95.9418C116.145 96.1378 117.092 95.9738 117.874 95.4855L125.657 90.5979C126.438 90.1106 126.993 89.3408 127.204 88.4542C127.414 87.5675 127.263 86.6348 126.783 85.8568L125.721 84.109L124.84 82.6856C120.072 74.9407 116.802 69.9798 116.09 69.31C115.693 68.9746 115.246 68.7027 114.763 68.5041C114.285 68.2843 113.765 68.0959 113.255 67.918C112.007 67.6019 110.851 67.0035 109.879 66.1702C109.072 65.3224 109.167 64.2444 109.263 63.0932C109.408 62.3447 109.398 61.5751 109.234 60.8305C109.07 60.0859 108.755 59.3817 108.307 58.7602C107.721 57.9752 106.936 57.356 106.03 56.9647C105.124 56.5734 104.13 56.4238 103.147 56.531L96.1283 60.9372Z" fill="#093269"/>
<path d="M100.532 52.2674L93.8521 56.4636L96.2774 60.2146L102.957 56.0184L100.532 52.2674Z" fill="white"/>
<path d="M96.2767 60.7383C96.1866 60.7381 96.0982 60.7148 96.02 60.6708C95.9419 60.6267 95.8766 60.5635 95.8307 60.4871L93.3992 56.7508C93.3627 56.6937 93.3383 56.6301 93.3274 56.5635C93.3164 56.497 93.3192 56.429 93.3355 56.3635C93.3665 56.2263 93.4502 56.1063 93.569 56.0286L100.248 51.8422C100.306 51.8063 100.37 51.7822 100.438 51.7714C100.505 51.7607 100.574 51.7634 100.641 51.7794C100.71 51.7929 100.776 51.8203 100.835 51.8599C100.893 51.8995 100.943 51.9505 100.981 52.0097L103.401 55.7042C103.477 55.8208 103.503 55.9623 103.473 56.0977C103.443 56.2331 103.36 56.3512 103.242 56.4263L96.5634 60.6127C96.4809 60.6791 96.3819 60.7225 96.2767 60.7383ZM94.5884 56.6252L96.436 59.4824L102.223 55.8507L100.365 52.9935L94.5884 56.6252Z" fill="#093269"/>
<path d="M125.285 82.3401L110.537 91.613C106.937 86.2649 102.34 79.2841 101.957 78.0072C101.794 77.4643 101.722 76.8985 101.745 76.3326L114.965 68.0226C115.494 68.2514 115.988 68.5546 116.43 68.9227C117.417 69.8123 121.888 76.8664 125.285 82.3401Z" fill="#093269"/>
<path d="M110.537 92.1365C110.448 92.1354 110.361 92.1129 110.284 92.0709C110.206 92.0289 110.14 91.9688 110.091 91.8958C107.054 87.3849 101.883 79.5982 101.448 78.1853C101.27 77.5876 101.191 76.9656 101.214 76.3433C101.216 76.2561 101.24 76.1706 101.282 76.0941C101.325 76.0176 101.385 75.9523 101.459 75.9037L114.678 67.6041C114.757 67.5629 114.844 67.5413 114.933 67.5413C115.022 67.5413 115.109 67.5629 115.188 67.6041C115.765 67.8484 116.302 68.1765 116.781 68.5775C117.842 69.6241 122.875 77.4736 125.742 82.0996C125.814 82.2166 125.836 82.3565 125.804 82.4895C125.773 82.6225 125.689 82.738 125.572 82.8113L110.781 92.0528C110.707 92.098 110.624 92.1266 110.537 92.1365ZM102.287 76.6363C102.292 77.0574 102.352 77.4761 102.467 77.8818C102.754 78.7923 105.823 83.6381 110.696 90.891L124.585 82.1728C119.977 74.7524 116.812 69.9694 116.09 69.331C115.768 69.057 115.411 68.8248 115.029 68.6403L102.287 76.6363Z" fill="#093269"/>
<path d="M44.7681 84.3079C44.7681 85.0614 48.8879 120.123 54.558 120.374C60.2281 120.625 98.8569 97.7672 98.8569 97.7672C105.631 95.8519 122.535 92.5342 116.579 81.66C116.17 80.84 115.523 80.1587 114.72 79.7028C113.466 79.2005 112.069 79.167 110.792 79.6086C109.444 79.9528 108.143 80.4553 106.916 81.1053C106.509 81.3988 106.005 81.5297 105.504 81.4716C105.202 81.3541 104.936 81.1633 104.729 80.9169L102.605 78.7504C101.352 81.1785 100.152 84.4544 97.9013 85.9196C96.7341 86.4844 95.5098 86.9264 94.2486 87.2384L82.1121 91.6341L63.7958 98.2695L60.7059 79.4307" fill="white"/>
<path d="M54.6432 120.897H54.5052C48.06 120.604 44.2056 84.6637 44.2056 84.266C44.2056 84.1272 44.2615 83.9941 44.3611 83.8959C44.4606 83.7978 44.5957 83.7427 44.7365 83.7427C44.8773 83.7427 45.0123 83.7978 45.1119 83.8959C45.2114 83.9941 45.2674 84.1272 45.2674 84.266C45.3523 87.1337 49.7376 119.599 54.5476 119.85C58.8692 120.028 85.2341 105.198 98.5493 97.3171L98.6767 97.2648L100.673 96.7205C105.918 95.3286 114.699 93.0051 116.791 88.2117C117.609 86.3487 117.375 84.2869 116.08 81.932C115.724 81.2072 115.154 80.6053 114.445 80.2052C113.311 79.752 112.047 79.7296 110.898 80.1424C109.588 80.479 108.323 80.9673 107.129 81.5971C106.872 81.7799 106.582 81.9101 106.273 81.9802C105.965 82.0503 105.646 82.0589 105.334 82.0053C104.92 81.8765 104.551 81.6332 104.272 81.3041L102.669 79.6819L102.297 80.4563C101.236 82.6437 100.068 85.1242 98.1245 86.3906C97.3083 86.8593 96.4289 87.2116 95.5125 87.4372C95.109 87.5523 94.7161 87.6674 94.3657 87.793L64.0615 98.7614C63.992 98.7947 63.9158 98.8121 63.8385 98.8121C63.7613 98.8121 63.685 98.7947 63.6155 98.7614C63.5472 98.7214 63.4887 98.6668 63.4446 98.6016C63.4005 98.5364 63.3718 98.4622 63.3607 98.3846L60.2602 79.5458C60.2497 79.4778 60.2528 79.4083 60.2695 79.3415C60.2863 79.2747 60.3162 79.2117 60.3576 79.1563C60.399 79.1009 60.4512 79.0541 60.511 79.0185C60.5708 78.983 60.6371 78.9595 60.7062 78.9492C60.7746 78.9373 60.8448 78.939 60.9125 78.9542C60.9803 78.9695 61.0442 78.9979 61.1007 79.0379C61.1571 79.0779 61.2048 79.1286 61.241 79.1871C61.2772 79.2456 61.3011 79.3106 61.3114 79.3783L64.2633 97.5683L94.0684 86.7464C94.44 86.6208 94.8541 86.4952 95.2895 86.3696C96.1016 86.1772 96.8837 85.878 97.6149 85.48C99.3032 84.4334 100.429 82.0472 101.416 79.9854C101.65 79.4725 101.894 78.9388 102.128 78.5097C102.169 78.4358 102.227 78.3721 102.297 78.3232C102.367 78.2743 102.447 78.2415 102.531 78.2271C102.614 78.2157 102.699 78.2241 102.779 78.2514C102.858 78.2787 102.93 78.3241 102.988 78.3841L105.111 80.5505C105.256 80.727 105.442 80.8669 105.653 80.9587C105.918 81.0424 106.301 80.8436 106.715 80.6447C107.982 79.973 109.325 79.453 110.718 79.0958C112.122 78.6286 113.65 78.6807 115.018 79.2423C115.934 79.7338 116.675 80.4899 117.142 81.4087C118.586 84.0462 118.841 86.4848 117.896 88.6303C115.602 93.8633 106.853 96.1972 101.076 97.7358L99.1651 98.2486C96.7973 99.5987 60.6743 120.897 54.6432 120.897Z" fill="#093269"/>
<path d="M62.2877 50.5234C62.2877 51.7898 65.3882 85.0613 65.3882 85.0613L42.1876 89.3838C42.1876 89.3838 40.3825 62.7163 40.9028 61.6907" fill="#1264D1"/>
<path d="M42.1875 89.9072C42.0711 89.9058 41.9587 89.8652 41.869 89.7921C41.8069 89.7493 41.7555 89.6931 41.7187 89.6278C41.6819 89.5625 41.6607 89.4899 41.6566 89.4153C41.1151 81.3564 39.9046 62.4967 40.4249 61.4605C40.4554 61.3985 40.4981 61.3432 40.5507 61.2978C40.6033 61.2525 40.6646 61.218 40.731 61.1965C40.7974 61.175 40.8675 61.1669 40.9372 61.1727C41.0068 61.1785 41.0746 61.1981 41.1364 61.2303C41.1992 61.2604 41.2554 61.3025 41.3017 61.3541C41.348 61.4057 41.3835 61.4658 41.4062 61.5309C41.4289 61.5961 41.4383 61.665 41.4339 61.7337C41.4295 61.8025 41.4114 61.8697 41.3806 61.9315C41.0833 62.9781 41.9858 78.3527 42.676 88.7559L64.8148 84.6428C64.422 80.4564 61.7568 51.7271 61.7568 50.5235C61.7568 50.3848 61.8127 50.2517 61.9123 50.1535C62.0119 50.0554 62.1469 50.0002 62.2877 50.0002C62.4285 50.0002 62.5636 50.0554 62.6631 50.1535C62.7627 50.2517 62.8186 50.3848 62.8186 50.5235C62.8186 51.5074 64.8467 73.5488 65.9085 85.0614C65.9213 85.1896 65.8847 85.3177 65.806 85.4205C65.7273 85.5233 65.6123 85.5931 65.4838 85.6161L42.2937 89.8967L42.1875 89.9072Z" fill="#093269"/>
<path d="M46.1907 174.682C46.0663 174.684 45.9454 174.641 45.8499 174.562C45.7544 174.484 45.6908 174.374 45.6705 174.253C43.163 160.145 41.4156 145.915 40.4357 131.625C40.4324 131.487 40.482 131.354 40.5746 131.251C40.6672 131.148 40.7959 131.083 40.9348 131.07C41.0045 131.066 41.0744 131.075 41.1405 131.098C41.2066 131.12 41.2675 131.155 41.3198 131.201C41.372 131.246 41.4147 131.302 41.4452 131.364C41.4757 131.426 41.4935 131.493 41.4975 131.562C42.4644 145.811 44.2047 159.999 46.711 174.064C46.7359 174.2 46.7051 174.34 46.6256 174.454C46.546 174.568 46.4241 174.646 46.2863 174.671L46.1907 174.682Z" fill="white"/>
<path d="M33.9696 236.505C33.9696 236.505 26.8129 250.979 28.0977 251.994C29.3825 253.01 64.9534 259.321 64.4331 254.789C63.9128 250.257 51.6276 244.124 51.3727 238.786L33.9696 236.505Z" fill="#093269"/>
<path d="M58.8584 256.913C48.6969 256.913 28.7772 253.198 27.7685 252.403C26.4306 251.356 30.147 243.046 33.5023 236.274C33.5503 236.176 33.6283 236.095 33.7254 236.042C33.8225 235.99 33.9338 235.968 34.0438 235.981L51.4364 238.273C51.5605 238.288 51.6755 238.345 51.761 238.435C51.8464 238.525 51.8969 238.642 51.9036 238.765C52.031 241.35 55.3969 244.291 58.6673 247.138C61.7678 249.828 64.6984 252.371 64.9639 254.747C64.9902 255.054 64.917 255.361 64.7548 255.625C64.5926 255.888 64.3498 256.094 64.0613 256.212C62.3963 256.804 60.6235 257.043 58.8584 256.913ZM28.4799 251.607C30.5186 252.539 59.4849 257.834 63.6366 255.228C63.9339 255.05 63.9127 254.914 63.9021 254.852C63.6897 252.884 60.7803 250.362 57.9665 247.913C54.6961 245.076 51.3302 242.146 50.8842 239.257L34.3305 237.07C31.1451 243.423 28.2038 250.435 28.4799 251.607Z" fill="#093269"/>
<path d="M73.8088 235.72C73.8088 235.72 70.3473 239.425 68.1812 250.194C68.1812 250.194 107.766 253.69 108.212 251.785C108.658 249.88 97.9651 246.646 94.6841 242.837C91.4031 239.027 91.9764 235.72 91.9764 235.72H73.8088Z" fill="#093269"/>
<path d="M103.179 252.895C100.142 252.895 95.4061 252.717 87.9946 252.246C78.1516 251.618 68.2342 250.749 68.1387 250.739C68.0647 250.733 67.9928 250.711 67.9277 250.676C67.8626 250.641 67.8057 250.593 67.7606 250.534C67.7156 250.476 67.6835 250.409 67.6663 250.338C67.6491 250.267 67.6472 250.193 67.6609 250.121C69.7845 239.331 73.2672 235.542 73.4159 235.385C73.4664 235.332 73.5273 235.29 73.5948 235.261C73.6624 235.233 73.7352 235.218 73.8088 235.218H91.9764C92.054 235.215 92.1311 235.231 92.2013 235.264C92.2715 235.296 92.3327 235.345 92.3799 235.406C92.4313 235.462 92.4686 235.529 92.4889 235.602C92.5092 235.674 92.5119 235.751 92.4967 235.825C92.4967 235.825 92.0189 238.964 95.0876 242.512C96.659 244.344 100.089 246.071 103.115 247.599C107.001 249.556 109.019 250.634 108.732 251.921C108.658 252.361 108.498 252.895 103.179 252.895ZM68.8182 249.755C82.9829 250.99 105.228 252.507 107.67 251.576C107.373 250.917 104.485 249.483 102.626 248.53C99.5153 246.96 95.9901 245.181 94.2806 243.193C92.4935 241.308 91.4697 238.843 91.4031 236.264H74.053C73.4053 237.08 70.6764 240.953 68.8182 249.755Z" fill="#093269"/>
<path d="M163.5 70.5241C163.5 70.5241 166.686 76.563 172.59 91.6131C178.493 106.663 188.305 139.171 185.735 161.265C183.165 183.358 169.362 207.242 152.351 210.036C135.341 212.831 121.559 206.195 117.832 198.21C114.105 190.224 116.664 149.103 115.899 137.507C115.471 130.799 114.674 124.118 113.51 117.496C113.51 117.496 162.471 90.9747 163.5 70.5241Z" fill="white"/>
<path d="M144.993 211.146C133.387 211.146 121.346 206.959 117.386 198.429C114.837 192.987 115.166 172.788 115.421 156.565C115.549 148.433 115.665 141.41 115.421 137.59C114.994 130.904 114.2 124.244 113.043 117.642C113.022 117.534 113.037 117.422 113.084 117.322C113.132 117.223 113.21 117.141 113.308 117.087C113.797 116.826 162.024 90.4409 163.033 70.5136C163.041 70.4003 163.086 70.2927 163.162 70.207C163.238 70.1213 163.339 70.0622 163.452 70.0385C163.565 70.0149 163.682 70.028 163.787 70.076C163.891 70.1239 163.977 70.204 164.031 70.3042C164.031 70.367 167.27 76.5839 173.142 91.4351C179.247 106.956 188.899 139.139 186.308 161.348C183.813 182.762 170.179 207.671 152.489 210.539C150.011 210.941 147.504 211.144 144.993 211.146ZM114.105 117.799C115.222 124.321 115.995 130.895 116.419 137.496C116.685 141.369 116.568 148.412 116.419 156.565C116.165 172.693 115.846 192.767 118.288 197.99C121.941 205.797 135.638 212.255 152.266 209.502C169.457 206.677 182.751 182.228 185.183 161.191C187.752 139.213 178.153 107.207 172.069 91.7805C167.907 81.1994 165.093 75.0349 163.808 72.3556C162.343 80.6551 153.816 90.6397 138.42 102.09C130.648 107.811 122.528 113.057 114.105 117.799Z" fill="#093269"/>
<path d="M164.487 80.247C163.531 87.2738 161.144 94.0377 157.469 100.132C156.715 101.43 155.887 102.749 154.995 104.057C152.821 107.21 150.249 110.076 147.339 112.587C145.55 114.14 143.663 115.58 141.69 116.899C139.685 118.25 137.592 119.47 135.426 120.552C132.893 121.844 130.231 122.875 127.483 123.629C126.378 123.921 125.248 124.114 124.107 124.204C123.518 124.273 122.922 124.273 122.333 124.204C118.192 123.702 114.678 121.954 113.669 118.249C113.106 116.156 113.329 113.581 114.603 110.243C118.214 100.823 131.423 91.5608 139.928 85.4068C148.433 79.2527 161.748 69.9484 161.748 69.9484C163.797 69.2472 165.284 73.4964 164.487 80.247Z" fill="#093269"/>
<path d="M123.225 124.78C122.907 124.797 122.588 124.797 122.27 124.78C117.269 124.173 114.115 121.986 113.159 118.438C112.544 116.187 112.862 113.382 114.115 110.065C117.63 100.886 130.233 91.7701 138.537 85.7417L139.599 84.9986C148.019 78.9074 161.313 69.6449 161.451 69.5507L161.578 69.4879C161.871 69.3786 162.188 69.3491 162.496 69.4026C162.805 69.456 163.093 69.5903 163.33 69.7915C164.944 71.0683 165.602 75.2024 164.997 80.3307C164.019 87.4241 161.611 94.2528 157.915 100.415C157.14 101.755 156.301 103.084 155.43 104.371C153.229 107.559 150.624 110.457 147.679 112.995C145.875 114.564 143.974 116.021 141.988 117.36C139.943 118.715 137.815 119.946 135.617 121.044C133.055 122.362 130.361 123.414 127.579 124.183C126.442 124.485 125.28 124.685 124.107 124.78C123.82 124.78 123.523 124.78 123.225 124.78ZM162.003 70.4404C160.941 71.1625 148.337 79.9644 140.236 85.8254L139.174 86.579C130.934 92.5341 118.479 101.535 115.071 110.421C113.903 113.487 113.595 116.072 114.158 118.113C115.219 122.027 119.201 123.346 122.365 123.681C122.919 123.74 123.478 123.74 124.032 123.681C125.144 123.58 126.245 123.387 127.324 123.105C130.03 122.363 132.653 121.35 135.15 120.081C137.295 119.002 139.369 117.793 141.361 116.459C143.329 115.17 145.209 113.754 146.989 112.221C149.865 109.741 152.409 106.91 154.56 103.796C155.42 102.529 156.248 101.221 157.012 99.9022C160.631 93.8638 162.992 87.1746 163.957 80.2261C164.594 74.8152 163.734 71.4556 162.682 70.6183C162.595 70.532 162.487 70.4686 162.368 70.4339C162.25 70.3991 162.124 70.3942 162.003 70.4194V70.4404Z" fill="#093269"/>
<path d="M143.698 110.651C143.045 111.874 142.314 113.056 141.51 114.188C138.216 118.949 133.223 122.312 127.526 123.608C126.421 123.9 125.29 124.092 124.15 124.183C123.561 124.252 122.965 124.252 122.376 124.183C119.414 123.796 116.207 122.77 114.54 120.123C112.873 117.475 114.976 113.56 117.959 112.566C117.897 111.705 118.045 110.841 118.391 110.047C118.736 109.254 119.269 108.553 119.945 108.003C121.697 106.59 125.891 105.91 128.057 106.339C127.893 104.257 128.327 102.171 129.31 100.321C129.812 99.4017 130.556 98.6334 131.465 98.0973C132.373 97.5611 133.412 97.2771 134.47 97.2752C134.617 95.9795 135.122 94.7482 135.928 93.7149C136.735 92.6817 137.814 91.886 139.047 91.4142C141.627 90.4618 143.974 91.2572 146.172 92.6388C148.37 94.0203 148.295 95.7158 147.849 98.2276C147.116 102.553 145.716 106.743 143.698 110.651Z" fill="white"/>
<path d="M123.226 124.78C122.907 124.797 122.588 124.797 122.27 124.78C118.288 124.257 115.517 122.812 114.052 120.478C113.656 119.833 113.418 119.105 113.356 118.354C113.293 117.602 113.408 116.846 113.691 116.145C114.003 115.287 114.491 114.501 115.125 113.837C115.759 113.172 116.525 112.644 117.375 112.284C117.368 111.402 117.561 110.531 117.94 109.732C118.318 108.934 118.873 108.229 119.563 107.668C121.315 106.266 125.073 105.575 127.473 105.805C127.39 103.826 127.852 101.862 128.811 100.122C129.326 99.196 130.066 98.4103 130.965 97.835C131.864 97.2597 132.893 96.9128 133.961 96.8252C134.194 95.5232 134.764 94.3024 135.616 93.2812C136.468 92.2599 137.573 91.4727 138.824 90.9956C142.009 89.8339 144.664 91.1736 146.416 92.2725C148.932 93.8529 148.784 95.8937 148.338 98.3951C147.576 102.769 146.144 107.004 144.09 110.954C143.43 112.197 142.689 113.396 141.871 114.544C138.5 119.406 133.399 122.842 127.579 124.173C126.446 124.476 125.288 124.675 124.118 124.769C123.82 124.78 123.523 124.78 123.226 124.78ZM126.496 106.757C124.373 106.757 121.537 107.375 120.231 108.422C119.623 108.919 119.143 109.553 118.833 110.27C118.523 110.988 118.39 111.768 118.448 112.545C118.458 112.661 118.428 112.778 118.362 112.875C118.297 112.972 118.199 113.044 118.087 113.079C117.307 113.365 116.599 113.815 116.012 114.396C115.426 114.978 114.974 115.679 114.689 116.449C114.462 117.001 114.367 117.597 114.413 118.191C114.459 118.785 114.645 119.36 114.954 119.871C116.25 121.965 118.756 123.21 122.387 123.691C122.938 123.745 123.493 123.745 124.043 123.691C125.155 123.589 126.256 123.397 127.335 123.116C132.903 121.843 137.784 118.556 141.011 113.906C141.791 112.788 142.501 111.624 143.135 110.421C145.132 106.56 146.515 102.419 147.233 98.1439C147.711 95.5274 147.616 94.2401 145.789 93.0888C143.273 91.5085 141.224 91.1422 139.132 91.9166C137.989 92.3521 136.989 93.0876 136.241 94.0432C135.492 94.9989 135.023 96.1383 134.884 97.338C134.871 97.4713 134.806 97.5943 134.704 97.6819C134.601 97.7695 134.468 97.815 134.332 97.809C133.373 97.8215 132.434 98.086 131.613 98.5754C130.791 99.0648 130.117 99.7612 129.66 100.593C128.718 102.354 128.309 104.345 128.482 106.328C128.484 106.408 128.468 106.487 128.435 106.559C128.402 106.632 128.353 106.696 128.291 106.747C128.23 106.799 128.159 106.836 128.081 106.856C128.004 106.876 127.923 106.878 127.845 106.862C127.4 106.778 126.949 106.736 126.496 106.737V106.757Z" fill="#093269"/>
<path d="M160.686 67.8552C161.918 67.1749 163.362 66.7144 163.33 68.3889C163.266 71.288 161.493 77.463 159.731 77.9654C156.227 79.012 158.053 71.288 158.053 71.288" fill="white"/>
<path d="M159.179 78.583C158.954 78.5875 158.73 78.5483 158.52 78.4675C158.311 78.3866 158.119 78.2658 157.957 78.112C156.343 76.6049 157.448 71.7172 157.575 71.1626C157.608 71.0282 157.693 70.912 157.813 70.8394C157.932 70.7669 158.076 70.7438 158.212 70.7753C158.281 70.79 158.345 70.8181 158.402 70.858C158.459 70.8978 158.507 70.9485 158.544 71.0071C158.581 71.0657 158.605 71.131 158.615 71.199C158.626 71.2671 158.622 71.3366 158.605 71.4033C158.17 73.2662 157.798 76.5212 158.69 77.3584C158.828 77.484 159.062 77.6306 159.624 77.4631C160.941 77.0863 162.81 71.4242 162.81 68.3786C162.81 68.0751 162.757 67.8553 162.661 67.7925C162.566 67.7297 162.247 67.5936 160.962 68.3053C160.902 68.3403 160.835 68.363 160.766 68.3719C160.696 68.3808 160.626 68.3759 160.558 68.3573C160.491 68.3387 160.428 68.3069 160.373 68.2638C160.319 68.2207 160.274 68.1672 160.24 68.1065C160.172 67.9857 160.154 67.8429 160.192 67.7095C160.23 67.5761 160.32 67.4629 160.442 67.3948C161.695 66.704 162.566 66.5366 163.213 66.9029C163.452 67.0689 163.639 67.2964 163.755 67.5603C163.871 67.8242 163.912 68.1145 163.872 68.3995C163.819 70.9846 162.173 77.8189 159.89 78.4678C159.66 78.54 159.42 78.5787 159.179 78.583Z" fill="#093269"/>
<path d="M94.7798 134.105C94.6942 134.106 94.61 134.084 94.5356 134.042C91.5625 132.483 87.8993 126.486 87.7506 126.224C87.7142 126.166 87.6901 126.101 87.6795 126.034C87.6689 125.966 87.6721 125.897 87.6889 125.831C87.7057 125.765 87.7358 125.702 87.7774 125.648C87.819 125.593 87.8712 125.547 87.9311 125.513C87.991 125.476 88.0575 125.452 88.1268 125.442C88.1962 125.431 88.267 125.434 88.3351 125.451C88.4032 125.467 88.4673 125.497 88.5238 125.538C88.5802 125.579 88.6278 125.631 88.6638 125.69C88.6638 125.753 92.327 131.698 95.0347 133.121C95.1389 133.177 95.2213 133.265 95.2688 133.372C95.3163 133.479 95.3262 133.598 95.2969 133.711C95.2676 133.824 95.2008 133.925 95.1071 133.996C95.0134 134.067 94.8982 134.106 94.7798 134.105Z" fill="white"/>
<path d="M50.0453 136.387C49.922 136.384 49.8031 136.341 49.7085 136.263C49.6139 136.184 49.5492 136.077 49.525 135.958C49.5002 135.822 49.5309 135.682 49.6105 135.568C49.69 135.454 49.812 135.376 49.9497 135.351C50.2258 135.351 56.5011 134.084 55.3225 127.574C55.3008 127.437 55.3341 127.297 55.4154 127.184C55.4966 127.071 55.6195 126.993 55.7579 126.967C55.8269 126.955 55.8977 126.957 55.9661 126.972C56.0345 126.987 56.0993 127.016 56.1565 127.055C56.2138 127.095 56.2625 127.146 56.2997 127.205C56.337 127.263 56.3622 127.328 56.3737 127.397C57.7328 134.932 50.2258 136.366 50.1409 136.387H50.0453Z" fill="white"/>
<path d="M164.488 80.2471C163.531 87.2739 161.144 94.0378 157.469 100.133C156.715 101.43 155.887 102.749 154.995 104.057C151.423 109.128 146.909 113.486 141.69 116.899C142.041 116.669 141.276 109.793 141.319 108.83C141.361 107.867 141.669 106.81 141.69 105.868C141.69 104.507 140.862 103.251 140.629 101.901C140.433 100.866 140.502 99.799 140.828 98.7962C141.154 97.7933 141.728 96.886 142.497 96.1554C142.009 95.974 141.602 95.6264 141.351 95.1754C141.1 94.7243 141.021 94.1996 141.128 93.6959C141.371 92.6929 141.951 91.8004 142.774 91.1631C144.959 89.1493 147.529 87.5839 150.334 86.5581C150.742 86.3613 151.207 86.3095 151.65 86.4116C152.118 86.5895 152.362 87.0919 152.797 87.3326C153.742 87.8768 154.857 86.9663 155.717 86.286C156.577 85.6057 158.234 85.3336 158.488 86.3802C158.452 85.5817 158.582 84.7843 158.87 84.0371C159.158 83.2898 159.598 82.6085 160.163 82.0351C160.727 81.4616 161.405 81.0081 162.155 80.7024C162.904 80.3967 163.709 80.2453 164.52 80.2576L164.488 80.2471Z" fill="white"/>
<path d="M141.691 117.454C141.598 117.453 141.507 117.429 141.426 117.382C141.346 117.336 141.279 117.27 141.233 117.191C141.187 117.111 141.163 117.021 141.163 116.93C141.163 116.838 141.188 116.748 141.234 116.669C141.235 114.994 141.146 113.321 140.969 111.656C140.852 110.148 140.777 109.196 140.788 108.84C140.82 108.327 140.884 107.817 140.979 107.312C141.073 106.842 141.133 106.367 141.16 105.889C141.119 105.138 140.931 104.403 140.608 103.722C140.386 103.175 140.209 102.612 140.077 102.037C139.89 101.037 139.929 100.008 140.192 99.0236C140.454 98.0396 140.933 97.1246 141.595 96.3437C141.192 96.0263 140.881 95.6092 140.695 95.1348C140.508 94.6605 140.452 94.1459 140.533 93.6435C140.784 92.5183 141.427 91.515 142.349 90.8072C144.582 88.7464 147.21 87.1452 150.079 86.0975C150.61 85.8506 151.214 85.8023 151.778 85.9614C152.098 86.1018 152.382 86.3131 152.606 86.5789C152.717 86.7076 152.846 86.8203 152.988 86.9138C153.594 87.2592 154.507 86.5475 155.239 85.9719C155.606 85.661 156.039 85.4363 156.506 85.3148C156.973 85.1934 157.462 85.1782 157.936 85.2707C158.153 83.8977 158.809 82.6286 159.807 81.648C160.806 80.6674 162.096 80.0262 163.49 79.8179C163.808 79.7961 164.127 79.7961 164.445 79.8179C164.52 79.8155 164.594 79.8294 164.663 79.8584C164.731 79.8874 164.792 79.9309 164.842 79.9858C164.892 80.0407 164.928 80.1057 164.95 80.1761C164.971 80.2466 164.977 80.3208 164.966 80.3935C163.987 87.4868 161.579 94.3156 157.883 100.478C157.108 101.817 156.269 103.147 155.399 104.434C151.794 109.562 147.232 113.966 141.956 117.412C141.872 117.444 141.781 117.459 141.691 117.454ZM151.247 86.9034C150.988 86.9251 150.734 86.9851 150.493 87.0813C147.756 88.0864 145.248 89.6159 143.113 91.5817C142.375 92.1412 141.851 92.9307 141.627 93.8214C141.547 94.1966 141.602 94.5876 141.782 94.9274C141.962 95.2673 142.256 95.5348 142.614 95.6844C142.705 95.7083 142.788 95.7559 142.853 95.8223C142.918 95.8886 142.964 95.9711 142.986 96.0611C143.01 96.1519 143.009 96.2474 142.983 96.3376C142.957 96.4278 142.907 96.5095 142.837 96.574C142.14 97.242 141.62 98.0683 141.322 98.9806C141.024 99.893 140.957 100.863 141.128 101.807C141.245 102.323 141.409 102.827 141.616 103.314C141.987 104.125 142.197 104.999 142.232 105.889C142.205 106.416 142.141 106.94 142.041 107.459C141.952 107.918 141.891 108.383 141.861 108.851C141.861 109.165 141.945 110.326 142.041 111.54C142.211 113.707 142.307 115.026 142.328 115.842C147.11 112.571 151.256 108.48 154.57 103.764C155.431 102.498 156.259 101.189 157.023 99.8708C160.518 94.01 162.842 87.5444 163.872 80.8226H163.66C162.333 81.0342 161.129 81.711 160.269 82.7283C159.408 83.7456 158.949 85.035 158.977 86.3591C158.997 86.4979 158.96 86.6387 158.874 86.7506C158.788 86.8625 158.661 86.9363 158.52 86.9557C158.38 86.9751 158.237 86.9386 158.123 86.8542C158.01 86.7698 157.935 86.6444 157.915 86.5057C157.9 86.4435 157.869 86.3865 157.824 86.3404C157.779 86.2944 157.723 86.2611 157.66 86.244C157.364 86.1981 157.062 86.2145 156.773 86.292C156.483 86.3696 156.214 86.5066 155.983 86.694C154.974 87.4895 153.7 88.4942 152.457 87.7406C152.231 87.6 152.027 87.4272 151.852 87.2278C151.726 87.0771 151.571 86.9526 151.396 86.8615C151.343 86.8533 151.289 86.8533 151.236 86.8615L151.247 86.9034Z" fill="#093269"/>
<path d="M157.501 100.122C156.747 101.42 155.919 102.738 155.027 104.047C150.005 111.436 142.349 117.119 135.458 120.541C132.925 121.834 130.263 122.865 127.515 123.618C126.114 121.682 125.721 119.003 126.91 115.884C128.789 110.954 135.628 110.18 140.257 110.232C140.066 108.463 139.514 106.684 139.992 104.874C140.469 103.063 142.115 101.462 143.963 101.734C144.472 101.734 145.025 101.964 145.46 101.681C145.75 101.396 145.946 101.031 146.023 100.635C146.293 99.8956 146.732 99.2277 147.307 98.6831C147.881 98.1385 148.576 97.7319 149.336 97.495C150.807 97.069 152.374 97.092 153.831 97.5609C155.289 98.0298 156.568 98.9227 157.501 100.122Z" fill="white"/>
<path d="M127.483 124.142C127.399 124.14 127.315 124.12 127.24 124.082C127.164 124.044 127.099 123.989 127.048 123.922C126.247 122.717 125.766 121.334 125.649 119.898C125.532 118.462 125.783 117.021 126.379 115.706C128.237 110.829 134.481 109.73 139.62 109.709C139.62 109.458 139.546 109.207 139.503 108.955C139.192 107.578 139.174 106.153 139.45 104.769C139.96 102.812 141.807 100.938 143.995 101.19H144.335C144.593 101.272 144.872 101.272 145.131 101.19C145.28 101.095 145.354 100.813 145.439 100.52V100.384C145.73 99.5607 146.211 98.8152 146.842 98.2053C147.474 97.5953 148.24 97.1374 149.081 96.8671C150.67 96.4098 152.363 96.4458 153.93 96.9701C155.497 97.4944 156.863 98.4816 157.841 99.7975C157.903 99.8829 157.936 99.9854 157.936 100.091C157.936 100.196 157.903 100.298 157.841 100.384C157.066 101.723 156.227 103.052 155.356 104.34C150.27 111.431 143.471 117.161 135.575 121.012C133.013 122.33 130.319 123.383 127.537 124.152L127.483 124.142ZM139.779 110.755C134.948 110.755 129.044 111.708 127.377 116.072C126.876 117.174 126.646 118.376 126.705 119.582C126.764 120.787 127.111 121.962 127.717 123.011C130.283 122.269 132.772 121.287 135.15 120.081C142.885 116.309 149.545 110.698 154.528 103.754C155.324 102.592 156.078 101.388 156.79 100.174C155.928 99.1237 154.773 98.3448 153.467 97.9337C152.161 97.5227 150.762 97.4975 149.442 97.8613C148.758 98.0734 148.134 98.439 147.618 98.9293C147.102 99.4197 146.709 100.021 146.469 100.687V100.813C146.382 101.295 146.127 101.732 145.747 102.048C145.513 102.181 145.254 102.266 144.986 102.298C144.718 102.33 144.446 102.309 144.186 102.236H143.889C142.285 102.048 140.884 103.544 140.491 105.031C140.245 106.285 140.27 107.576 140.565 108.819C140.639 109.28 140.714 109.74 140.767 110.211C140.773 110.285 140.764 110.359 140.74 110.429C140.717 110.5 140.679 110.564 140.629 110.619C140.576 110.672 140.514 110.715 140.444 110.743C140.375 110.772 140.3 110.787 140.225 110.787L139.779 110.755Z" fill="#093269"/>
<path d="M134.969 119.735C135.077 120.026 135.231 120.298 135.426 120.541C131.912 122.432 128.075 123.67 124.107 124.194C124.588 123.383 124.871 122.473 124.935 121.535C124.935 119.442 121.336 118.898 120.964 115.088C120.847 114.008 121.024 112.917 121.477 111.927C121.931 110.938 122.645 110.085 123.544 109.458L124.149 109.353L131.932 107.94C133.002 108.214 133.978 108.765 134.758 109.536C135.539 110.307 136.095 111.27 136.371 112.325C137.38 116.009 134.194 117.747 134.969 119.735Z" fill="white"/>
<path d="M124.107 124.717C124.02 124.718 123.935 124.698 123.859 124.657C123.783 124.617 123.718 124.558 123.671 124.487C123.625 124.407 123.6 124.317 123.6 124.225C123.6 124.133 123.625 124.043 123.671 123.964C124.113 123.223 124.378 122.392 124.447 121.535C124.447 120.876 123.937 120.384 123.119 119.641C122.27 119.024 121.583 118.216 121.115 117.284C120.648 116.352 120.413 115.323 120.431 114.284C120.448 113.244 120.718 112.224 121.217 111.308C121.716 110.392 122.43 109.607 123.3 109.018C123.36 108.985 123.424 108.96 123.491 108.945L131.879 107.427H132.017C133.041 107.677 133.99 108.164 134.785 108.847C135.58 109.53 136.198 110.391 136.588 111.356C136.978 112.322 137.13 113.366 137.029 114.401C136.928 115.436 136.579 116.432 136.01 117.307C135.5 118.291 135.203 118.919 135.447 119.547C135.536 119.796 135.665 120.029 135.829 120.238C135.875 120.299 135.906 120.369 135.92 120.443C135.935 120.517 135.933 120.594 135.914 120.667C135.896 120.74 135.861 120.809 135.814 120.869C135.766 120.928 135.706 120.977 135.638 121.012C132.064 122.931 128.162 124.187 124.128 124.717H124.107ZM123.746 109.96C122.951 110.537 122.325 111.31 121.93 112.201C121.535 113.092 121.385 114.07 121.495 115.036C121.594 115.796 121.849 116.528 122.243 117.188C122.637 117.848 123.163 118.423 123.788 118.877C124.249 119.172 124.638 119.562 124.928 120.022C125.218 120.481 125.401 120.998 125.466 121.535C125.445 122.24 125.283 122.934 124.988 123.576C128.359 122.976 131.619 121.883 134.661 120.332C134.587 120.197 134.523 120.057 134.47 119.913C134.045 118.867 134.555 117.82 135.075 116.836C135.5 116.199 135.787 115.484 135.92 114.733C136.054 113.982 136.03 113.213 135.85 112.472C135.612 111.524 135.123 110.655 134.433 109.955C133.743 109.254 132.876 108.747 131.922 108.484L123.746 109.96Z" fill="#093269"/>
<path d="M131.123 103.59L123.331 104.993L124.142 109.368L131.934 107.965L131.123 103.59Z" fill="white"/>
<path d="M124.149 109.876C124.039 109.876 123.932 109.843 123.841 109.782C123.785 109.743 123.737 109.693 123.701 109.636C123.665 109.578 123.64 109.514 123.629 109.447L122.811 105.072C122.799 105.004 122.801 104.935 122.816 104.867C122.831 104.8 122.86 104.736 122.901 104.679C122.941 104.623 122.992 104.575 123.052 104.538C123.111 104.502 123.177 104.477 123.247 104.465L131.03 103.063C131.17 103.037 131.315 103.067 131.433 103.147C131.49 103.185 131.538 103.235 131.574 103.293C131.611 103.35 131.635 103.415 131.646 103.482L132.463 107.856C132.488 107.992 132.457 108.132 132.378 108.246C132.298 108.36 132.176 108.438 132.038 108.463L124.245 109.866L124.149 109.876ZM123.958 105.397L124.574 108.746L131.316 107.532L130.701 104.183L123.958 105.397Z" fill="#093269"/>
<path d="M149.835 92.1365C149.731 92.1344 149.63 92.1032 149.544 92.0463C149.458 91.9895 149.39 91.9095 149.349 91.8158C149.307 91.7222 149.294 91.6188 149.311 91.5179C149.327 91.417 149.373 91.323 149.442 91.2468C150.418 90.0847 151.734 89.2479 153.211 88.8508C154.687 88.4536 156.252 88.5155 157.692 89.028C157.822 89.0849 157.923 89.1902 157.974 89.3208C158.024 89.4513 158.021 89.5963 157.963 89.724C157.905 89.8517 157.798 89.9516 157.666 90.0016C157.533 90.0517 157.386 90.0478 157.257 89.9909C157.108 89.9177 153.562 88.4315 150.227 91.969C150.123 92.0727 149.983 92.1327 149.835 92.1365Z" fill="#D5E6FB"/>
<path d="M143.888 112.807C143.758 112.808 143.632 112.761 143.534 112.676C143.436 112.591 143.373 112.474 143.358 112.346C142.966 110.084 143.182 107.761 143.984 105.606C144.412 104.486 145.136 103.499 146.081 102.747C147.025 101.994 148.156 101.504 149.357 101.326C149.426 101.317 149.497 101.322 149.564 101.342C149.631 101.361 149.694 101.394 149.748 101.438C149.801 101.482 149.845 101.537 149.877 101.599C149.908 101.66 149.926 101.728 149.93 101.797C149.937 101.865 149.931 101.934 149.911 101.999C149.89 102.065 149.857 102.126 149.812 102.179C149.768 102.231 149.713 102.275 149.651 102.306C149.589 102.338 149.522 102.357 149.452 102.362C148.445 102.523 147.499 102.945 146.712 103.585C145.924 104.225 145.324 105.06 144.971 106.004C144.234 107.992 144.04 110.136 144.409 112.221C144.427 112.358 144.389 112.497 144.303 112.607C144.218 112.717 144.091 112.789 143.952 112.807H143.888Z" fill="#D5E6FB"/>
<path d="M133.791 102.299C133.721 102.296 133.653 102.28 133.589 102.251C133.526 102.222 133.469 102.181 133.422 102.131C133.374 102.08 133.337 102.021 133.313 101.957C133.289 101.892 133.278 101.823 133.281 101.755C133.363 100.626 133.814 99.5535 134.566 98.6986C135.281 97.8948 136.12 97.2062 137.051 96.6577C137.169 96.5913 137.308 96.5721 137.44 96.604C137.572 96.6359 137.687 96.7166 137.76 96.8293C137.834 96.942 137.861 97.0782 137.835 97.2098C137.81 97.3415 137.734 97.4585 137.624 97.5369C136.784 98.0273 136.028 98.6454 135.384 99.3684C134.771 100.046 134.398 100.902 134.322 101.807C134.311 101.939 134.251 102.063 134.153 102.154C134.055 102.245 133.926 102.297 133.791 102.299Z" fill="#D5E6FB"/>
<path d="M143.698 164.614C143.612 164.615 143.528 164.596 143.452 164.557C143.376 164.519 143.311 164.463 143.262 164.394C143.183 164.279 143.151 164.139 143.175 164.002C143.199 163.865 143.276 163.743 143.39 163.661C161.069 151.385 167.992 105.167 168.056 104.706C168.075 104.567 168.15 104.442 168.264 104.357C168.377 104.273 168.52 104.237 168.661 104.256C168.802 104.275 168.929 104.349 169.014 104.461C169.1 104.573 169.137 104.714 169.117 104.853C167.768 113.305 165.871 121.664 163.437 129.877C158.128 147.585 151.608 159.245 144.016 164.519C143.922 164.582 143.811 164.615 143.698 164.614Z" fill="#D5E6FB"/>
<path d="M135.606 188.424C131.905 188.407 128.262 187.51 124.988 185.807C124.867 185.735 124.78 185.619 124.746 185.483C124.712 185.348 124.734 185.205 124.807 185.085C124.881 184.966 124.999 184.88 125.136 184.847C125.274 184.813 125.419 184.835 125.54 184.907C126.188 185.284 141.552 194.002 153.147 176.943C153.225 176.828 153.346 176.748 153.483 176.721C153.62 176.693 153.763 176.72 153.88 176.796C153.997 176.875 154.078 176.996 154.106 177.133C154.134 177.269 154.106 177.412 154.029 177.529C148.189 186.174 141.234 188.424 135.606 188.424Z" fill="#D5E6FB"/>
<path d="M292.946 209.22C292.805 209.22 292.67 209.165 292.571 209.067C292.471 208.968 292.415 208.835 292.415 208.696C292.415 204.51 291.226 201.37 288.88 199.371C285.121 196.095 279.567 196.713 279.514 196.723C279.374 196.741 279.231 196.704 279.119 196.618C279.006 196.533 278.933 196.407 278.914 196.268C278.896 196.129 278.934 195.989 279.021 195.878C279.108 195.767 279.235 195.695 279.376 195.677C279.631 195.677 285.45 194.976 289.58 198.576C292.171 200.826 293.477 204.227 293.477 208.686C293.479 208.756 293.466 208.825 293.44 208.889C293.414 208.954 293.375 209.013 293.325 209.063C293.276 209.113 293.217 209.152 293.152 209.179C293.087 209.206 293.017 209.22 292.946 209.22Z" fill="#D5E6FB"/>
<path d="M12.6906 220.91C6.91435 220.91 0.362951 211.386 0.0868793 210.978C0.0301457 210.891 0 210.789 0 210.685C0 210.581 0.0301457 210.48 0.0868793 210.392C0.148849 210.308 0.233441 210.243 0.331044 210.204C0.428646 210.165 0.535346 210.154 0.639024 210.172C4.72701 211.009 9.62198 213.595 13.0198 215.635C8.47855 210.223 5.37669 203.781 3.99436 196.891C3.98015 196.807 3.98727 196.721 4.01507 196.641C4.04287 196.56 4.09048 196.488 4.15363 196.43C4.21906 196.373 4.29749 196.331 4.38243 196.309C4.46738 196.287 4.55639 196.286 4.64207 196.305C11.735 198.053 16.1521 205.096 18.6368 210.811C17.1712 202.313 16.7363 193.674 17.3414 185.075C17.3504 184.972 17.3901 184.874 17.4556 184.793C17.5211 184.712 17.6094 184.652 17.7094 184.621C17.8093 184.589 17.9165 184.588 18.0173 184.617C18.1181 184.645 18.208 184.703 18.2758 184.782C30.5397 198.942 28.4904 218.576 28.4692 218.775C28.4641 218.844 28.4446 218.912 28.4119 218.973C28.3793 219.034 28.3341 219.088 28.2793 219.131C28.2244 219.174 28.1611 219.206 28.0933 219.224C28.0255 219.242 27.9546 219.246 27.8852 219.236C27.746 219.22 27.6188 219.151 27.5313 219.043C27.4438 218.935 27.4031 218.797 27.418 218.66C27.418 218.472 29.3293 200.167 18.297 186.456C17.76 197.176 18.7465 207.917 21.2276 218.367C21.2276 218.493 21.2276 218.566 21.2276 218.608C21.2586 218.747 21.2324 218.892 21.1547 219.012C21.077 219.131 20.9543 219.216 20.8135 219.246C20.6727 219.277 20.5254 219.251 20.4039 219.174C20.2824 219.098 20.1968 218.977 20.1658 218.838V218.765C19.8579 217.509 15.6743 200.92 5.14112 197.55C5.78883 200.533 8.59202 210.978 17.1396 218.325C17.2428 218.414 17.307 218.539 17.3189 218.674C17.3308 218.808 17.2894 218.942 17.2033 219.047C17.1194 219.153 16.9968 219.222 16.8618 219.24C16.7268 219.257 16.5902 219.222 16.4813 219.142C16.3964 219.142 8.26286 213.406 1.74331 211.543C3.6652 214.066 8.52831 219.864 12.6269 219.864C12.7669 219.866 12.9003 219.922 12.9993 220.02C13.0983 220.118 13.1551 220.249 13.1578 220.387C13.1588 220.516 13.1117 220.64 13.0255 220.737C12.9393 220.833 12.8201 220.895 12.6906 220.91Z" fill="#D5E6FB"/>
</svg>
